<svg xmlns="http://www.w3.org/2000/svg" viewBox="0 0 292 268" shape-rendering="geometricPrecision">
  <!-- Карта -->
  <g transform="translate(0,268) scale(0.1,-0.1)" stroke="none">
    <path fill="white" d="M1189 2455 c20 -7 159 -74 308 -149 166 -83 284 -136 302 -136 18 0
    102 36 201 85 107 54 191 90 227 96 145 27 300 -58 366 -199 22 -47 22 -50 25
    -737 2 -463 -1 -706 -8 -740 -14 -66 -62 -143 -113 -182 -67 -50 -582 -303
    -643 -315 -93 -19 -141 -2 -456 157 -201 101 -298 145 -321 145 -23 0 -93 -29
    -206 -85 -95 -47 -195 -90 -223 -96 -133 -29 -290 49 -356 176 -14 28 -28 61
    -31 75 -3 14 -6 340 -6 725 l0 700 33 65 c37 75 63 107 112 137 84 51 550 278
    595 289 55 14 136 10 194 -11z"/>
    <!-- Левая линия -->
    <path fill="#008F00" stroke="white" stroke-width="10" d="M1044 2010 c-11 -4 -28 -20 -37 -34 -15 -23 -17 -75 -17 -536 l0
    -511 25 -24 c24 -25 50 -30 93 -19 50 14 51 24 51 561 0 477 -1 500 -19 531
    -11 18 -26 32 -34 32 -8 0 -20 2 -28 4 -7 3 -22 1 -34 -4z"/>
    <!-- Правая линия -->
    <path fill="#008F00" stroke="white" stroke-width="10" d="M1747 1758 c-9 -7 -21 -25 -26 -40 -14 -37 -14 -983 0 -1026 12 -38
    35 -52 83 -52 25 0 40 7 55 26 21 26 21 36 21 539 0 503 0 513 -21 539 -16 20
    -29 26 -58 26 -20 0 -45 -6 -54 -12z"/>
  </g>
</svg>
