<svg width="948" height="1176" viewBox="0 0 948 1176" fill="none" xmlns="http://www.w3.org/2000/svg">
<path d="M946.189 668.246C668.326 895.442 219.459 592.515 5.97369 1061.1C219.459 956.974 290.621 952.24 553.372 919.108C443.893 942.774 208.511 966.44 44.2916 1089.5C400.101 1231.5 931.078 1259.9 946.189 668.246Z" fill="#80BF58"/>
<path d="M0.5 374.431V976.996C0.5 985.803 13.7405 988.593 17.8136 980.785C70.1017 880.54 158.765 813.121 269.786 777.774C273.142 776.706 275.45 773.596 275.443 770.074L274.231 209.501C274.217 203.188 267.238 199.377 261.919 202.78L4.18823 367.692C1.89025 369.163 0.5 371.703 0.5 374.431Z" fill="#444A5D"/>
<path d="M307.043 14.823V757.427C307.043 762.622 311.879 766.47 316.976 765.466C360.996 756.792 460.008 747.856 622.243 741.81C626.546 741.65 630.009 738.115 630.009 733.81V194.773C630.009 191.934 628.504 189.307 626.055 187.871L319.089 7.9214C313.756 4.79498 307.043 8.64096 307.043 14.823Z" fill="#444A5D"/>
<path d="M662.853 731.245V330.348C662.853 324.545 668.836 320.673 674.129 323.049L942.777 443.663C945.651 444.954 947.5 447.798 947.5 450.948V635.968C947.5 638.444 946.344 640.747 944.372 642.244C845.504 717.336 732.576 737.549 670.813 739.14C666.397 739.253 662.853 735.663 662.853 731.245Z" fill="#444A5D"/>
</svg>
