<svg width="18" height="19" viewBox="0 0 18 19" fill="none" xmlns="http://www.w3.org/2000/svg">
<path fill-rule="evenodd" clip-rule="evenodd" d="M11.625 3.9751V5.4751H12.75V3.9751H13.5C14.1213 3.9751 14.625 4.47878 14.625 5.1001V6.61181H3.375V5.1001C3.375 4.47878 3.87868 3.9751 4.5 3.9751H5.25V5.4751H6.375V3.9751H11.625ZM3.375 7.73681V14.1001C3.375 14.7214 3.87868 15.2251 4.5 15.2251H13.5C14.1213 15.2251 14.625 14.7214 14.625 14.1001V7.73681H3.375ZM4.5 2.8501H5.25V1.3501H6.375V2.8501H11.625V1.3501H12.75V2.8501H13.5C14.7427 2.8501 15.75 3.85746 15.75 5.1001V14.1001C15.75 15.3428 14.7427 16.3501 13.5 16.3501H4.5C3.25736 16.3501 2.25 15.3428 2.25 14.1001V5.1001C2.25 3.85746 3.25736 2.8501 4.5 2.8501Z" fill="#444A5D"/>
</svg>
