<svg width="14" height="13" viewBox="0 0 14 13" fill="none" xmlns="http://www.w3.org/2000/svg">
<path d="M12.6333 1.20034C12.0867 0.860339 11.42 0.833672 10.8467 1.12034L9.37333 1.86034C9.14 1.98034 8.86 1.98034 8.62667 1.86034L5.82 0.453672C5.30667 0.200339 4.69333 0.200339 4.18 0.453672L1.51333 1.78701C0.886667 2.10034 0.5 2.72701 0.5 3.42701V10.447C0.5 11.087 0.826667 11.667 1.36667 12.007C1.91333 12.347 2.58 12.3737 3.15333 12.087L4.62667 11.347C4.86 11.227 5.14 11.227 5.37333 11.347L8.18 12.7537C8.43333 12.8803 8.72 12.947 9 12.947C9.28 12.947 9.56 12.8803 9.82 12.7537L12.4867 11.4203C13.1133 11.107 13.5 10.4803 13.5 9.78034V2.76034C13.5 2.12034 13.1733 1.54034 12.6333 1.20034ZM5.5 8.60034C5.5 8.87367 5.27333 9.10034 5 9.10034C4.72667 9.10034 4.5 8.87367 4.5 8.60034V3.26701C4.5 2.99367 4.72667 2.76701 5 2.76701C5.27333 2.76701 5.5 2.99367 5.5 3.26701V8.60034ZM9.5 9.93367C9.5 10.207 9.27333 10.4337 9 10.4337C8.72667 10.4337 8.5 10.207 8.5 9.93367V4.60034C8.5 4.32701 8.72667 4.10034 9 4.10034C9.27333 4.10034 9.5 4.32701 9.5 4.60034V9.93367Z" fill="white"/>
</svg>
