<svg width="24" height="25" viewBox="0 0 24 25" fill="none" xmlns="http://www.w3.org/2000/svg">
<path fill-rule="evenodd" clip-rule="evenodd" d="M17.5 8.1001C16.3954 8.1001 15.5 7.20467 15.5 6.1001C15.5 4.99553 16.3954 4.1001 17.5 4.1001C18.6046 4.1001 19.5 4.99553 19.5 6.1001C19.5 7.20467 18.6046 8.1001 17.5 8.1001ZM14.1797 7.2103C14.0632 6.86146 14 6.48816 14 6.1001C14 4.1671 15.567 2.6001 17.5 2.6001C19.433 2.6001 21 4.1671 21 6.1001C21 8.0331 19.433 9.6001 17.5 9.6001C16.4947 9.6001 15.5884 9.17626 14.95 8.49753L9.82026 11.4899C9.93685 11.8387 10 12.212 10 12.6001C10 12.9882 9.93685 13.3615 9.82026 13.7103L14.95 16.7027C15.5884 16.0239 16.4947 15.6001 17.5 15.6001C19.433 15.6001 21 17.1671 21 19.1001C21 21.0331 19.433 22.6001 17.5 22.6001C15.567 22.6001 14 21.0331 14 19.1001C14 18.712 14.0632 18.3387 14.1797 17.9899L9.04998 14.9975C8.41161 15.6763 7.5053 16.1001 6.5 16.1001C4.567 16.1001 3 14.5331 3 12.6001C3 10.6671 4.567 9.1001 6.5 9.1001C7.5053 9.1001 8.41161 9.52394 9.04998 10.2027L14.1797 7.2103ZM6.5 14.6001C5.39543 14.6001 4.5 13.7047 4.5 12.6001C4.5 11.4955 5.39543 10.6001 6.5 10.6001C7.60457 10.6001 8.5 11.4955 8.5 12.6001C8.5 13.7047 7.60457 14.6001 6.5 14.6001ZM15.5 19.1001C15.5 20.2047 16.3954 21.1001 17.5 21.1001C18.6046 21.1001 19.5 20.2047 19.5 19.1001C19.5 17.9955 18.6046 17.1001 17.5 17.1001C16.3954 17.1001 15.5 17.9955 15.5 19.1001Z" fill="#444A5D"/>
</svg>
