<svg width="24" height="25" viewBox="0 0 24 25" fill="none" xmlns="http://www.w3.org/2000/svg">
  <g clip-path="url(#clip0_14_3302)">
    <path d="M12 15.6001C13.6569 15.6001 15 14.257 15 12.6001C15 10.9432 13.6569 9.6001 12 9.6001C10.3431 9.6001 9 10.9432 9 12.6001C9 14.257 10.3431 15.6001 12 15.6001Z" stroke="#757D9D" stroke-width="2" stroke-linecap="round" stroke-linejoin="round" />
    <path d="M19.4 15.6001C19.2669 15.9017 19.2272 16.2363 19.286 16.5607C19.3448 16.8851 19.4995 17.1844 19.73 17.4201L19.79 17.4801C19.976 17.6658 20.1235 17.8864 20.2241 18.1292C20.3248 18.372 20.3766 18.6323 20.3766 18.8951C20.3766 19.1579 20.3248 19.4182 20.2241 19.661C20.1235 19.9038 19.976 20.1244 19.79 20.3101C19.6043 20.496 19.3837 20.6436 19.1409 20.7442C18.8981 20.8449 18.6378 20.8967 18.375 20.8967C18.1122 20.8967 17.8519 20.8449 17.6091 20.7442C17.3663 20.6436 17.1457 20.496 16.96 20.3101L16.9 20.2501C16.6643 20.0196 16.365 19.8649 16.0406 19.8061C15.7162 19.7473 15.3816 19.787 15.08 19.9201C14.7842 20.0469 14.532 20.2573 14.3543 20.5256C14.1766 20.7939 14.0813 21.1083 14.08 21.4301V21.6001C14.08 22.1305 13.8693 22.6392 13.4942 23.0143C13.1191 23.3894 12.6104 23.6001 12.08 23.6001C11.5496 23.6001 11.0409 23.3894 10.6658 23.0143C10.2907 22.6392 10.08 22.1305 10.08 21.6001V21.5101C10.0723 21.1791 9.96512 20.8581 9.77251 20.5888C9.5799 20.3195 9.31074 20.1144 9 20.0001C8.69838 19.867 8.36381 19.8273 8.03941 19.8861C7.71502 19.9449 7.41568 20.0996 7.18 20.3301L7.12 20.3901C6.93425 20.5761 6.71368 20.7236 6.47088 20.8242C6.22808 20.9249 5.96783 20.9767 5.705 20.9767C5.44217 20.9767 5.18192 20.9249 4.93912 20.8242C4.69632 20.7236 4.47575 20.5761 4.29 20.3901C4.10405 20.2044 3.95653 19.9838 3.85588 19.741C3.75523 19.4982 3.70343 19.2379 3.70343 18.9751C3.70343 18.7123 3.75523 18.452 3.85588 18.2092C3.95653 17.9664 4.10405 17.7458 4.29 17.5601L4.35 17.5001C4.58054 17.2644 4.73519 16.9651 4.794 16.6407C4.85282 16.3163 4.81312 15.9817 4.68 15.6801C4.55324 15.3843 4.34276 15.1321 4.07447 14.9544C3.80618 14.7767 3.49179 14.6814 3.17 14.6801H3C2.46957 14.6801 1.96086 14.4694 1.58579 14.0943C1.21071 13.7192 1 13.2105 1 12.6801C1 12.1497 1.21071 11.641 1.58579 11.2659C1.96086 10.8908 2.46957 10.6801 3 10.6801H3.09C3.42099 10.6724 3.742 10.5652 4.0113 10.3726C4.28059 10.18 4.48572 9.91083 4.6 9.6001C4.73312 9.29848 4.77282 8.9639 4.714 8.63951C4.65519 8.31511 4.50054 8.01578 4.27 7.7801L4.21 7.7201C4.02405 7.53435 3.87653 7.31377 3.77588 7.07098C3.67523 6.82818 3.62343 6.56793 3.62343 6.3051C3.62343 6.04227 3.67523 5.78201 3.77588 5.53922C3.87653 5.29642 4.02405 5.07584 4.21 4.8901C4.39575 4.70414 4.61632 4.55663 4.85912 4.45598C5.10192 4.35533 5.36217 4.30352 5.625 4.30352C5.88783 4.30352 6.14808 4.35533 6.39088 4.45598C6.63368 4.55663 6.85425 4.70414 7.04 4.8901L7.1 4.9501C7.33568 5.18063 7.63502 5.33528 7.95941 5.3941C8.28381 5.45292 8.61838 5.41321 8.92 5.2801H9C9.29577 5.15333 9.54802 4.94285 9.72569 4.67456C9.90337 4.40627 9.99872 4.09188 10 3.7701V3.6001C10 3.06966 10.2107 2.56096 10.5858 2.18588C10.9609 1.81081 11.4696 1.6001 12 1.6001C12.5304 1.6001 13.0391 1.81081 13.4142 2.18588C13.7893 2.56096 14 3.06966 14 3.6001V3.6901C14.0013 4.01188 14.0966 4.32627 14.2743 4.59456C14.452 4.86285 14.7042 5.07333 15 5.2001C15.3016 5.33321 15.6362 5.37292 15.9606 5.3141C16.285 5.25528 16.5843 5.10063 16.82 4.8701L16.88 4.8101C17.0657 4.62414 17.2863 4.47663 17.5291 4.37598C17.7719 4.27533 18.0322 4.22352 18.295 4.22352C18.5578 4.22352 18.8181 4.27533 19.0609 4.37598C19.3037 4.47663 19.5243 4.62414 19.71 4.8101C19.896 4.99584 20.0435 5.21642 20.1441 5.45922C20.2448 5.70201 20.2966 5.96227 20.2966 6.2251C20.2966 6.48793 20.2448 6.74818 20.1441 6.99098C20.0435 7.23377 19.896 7.45435 19.71 7.6401L19.65 7.7001C19.4195 7.93578 19.2648 8.23511 19.206 8.55951C19.1472 8.8839 19.1869 9.21848 19.32 9.5201V9.6001C19.4468 9.89587 19.6572 10.1481 19.9255 10.3258C20.1938 10.5035 20.5082 10.5988 20.83 10.6001H21C21.5304 10.6001 22.0391 10.8108 22.4142 11.1859C22.7893 11.561 23 12.0697 23 12.6001C23 13.1305 22.7893 13.6392 22.4142 14.0143C22.0391 14.3894 21.5304 14.6001 21 14.6001H20.91C20.5882 14.6014 20.2738 14.6967 20.0055 14.8744C19.7372 15.0521 19.5268 15.3043 19.4 15.6001V15.6001Z" stroke="#757D9D" stroke-width="2" stroke-linecap="round" stroke-linejoin="round" />
  </g>
  <defs>
    <clipPath id="clip0_14_3302">
      <rect width="24" height="24" fill="white" transform="translate(0 0.600098)" />
    </clipPath>
  </defs>
</svg>