<svg width="24" height="25" viewBox="0 0 24 25" fill="none" xmlns="http://www.w3.org/2000/svg">
<g clip-path="url(#clip0_28_1932)">
<path d="M17.5034 0.399902H6.49657C2.9143 0.399902 0 3.3142 0 6.89647V17.9035C0 21.4856 2.9143 24.3999 6.49657 24.3999H17.5036C21.0857 24.3999 24 21.4856 24 17.9035V6.89647C24 3.3142 21.0857 0.399902 17.5034 0.399902ZM22.593 17.9035C22.593 20.7097 20.3098 22.9929 17.5034 22.9929H6.49657C3.69012 22.9929 1.40698 20.7097 1.40698 17.9035V6.89647C1.40698 4.09002 3.69012 1.80688 6.49657 1.80688H17.5036C20.3098 1.80688 22.593 4.09002 22.593 6.89647V17.9035Z" fill="black"/>
<path d="M11.9999 5.8374C8.3814 5.8374 5.43762 8.78118 5.43762 12.3997C5.43762 16.0182 8.3814 18.962 11.9999 18.962C15.6185 18.962 18.5622 16.0182 18.5622 12.3997C18.5622 8.78118 15.6185 5.8374 11.9999 5.8374ZM11.9999 17.555C9.1574 17.555 6.8446 15.2424 6.8446 12.3997C6.8446 9.55718 9.1574 7.24438 11.9999 7.24438C14.8426 7.24438 17.1553 9.55718 17.1553 12.3997C17.1553 15.2424 14.8426 17.555 11.9999 17.555Z" fill="black"/>
<path d="M18.7192 3.50684C17.6499 3.50684 16.7802 4.37677 16.7802 5.44592C16.7802 6.51525 17.6499 7.38519 18.7192 7.38519C19.7886 7.38519 20.6585 6.51525 20.6585 5.44592C20.6585 4.37659 19.7886 3.50684 18.7192 3.50684ZM18.7192 5.97802C18.4259 5.97802 18.1871 5.73925 18.1871 5.44592C18.1871 5.1524 18.4259 4.91382 18.7192 4.91382C19.0128 4.91382 19.2515 5.1524 19.2515 5.44592C19.2515 5.73925 19.0128 5.97802 18.7192 5.97802Z" fill="black"/>
</g>
<defs>
<clipPath id="clip0_28_1932">
<rect width="24" height="24" fill="white" transform="translate(0 0.399902)"/>
</clipPath>
</defs>
</svg>
