<svg width="24" height="25" viewBox="0 0 24 25" fill="none" xmlns="http://www.w3.org/2000/svg">
<g clip-path="url(#clip0_28_1894)">
<path d="M23.6327 2.97961C23.3398 2.61998 22.9001 2.42188 22.3946 2.42188C22.1219 2.42188 21.8329 2.47897 21.5358 2.59152L1.21685 10.2901C0.136479 10.6995 -0.00893289 11.3158 0.000536215 11.6467C0.00995844 11.976 0.188606 12.5785 1.27605 12.9263L5.5852 14.5055L7.85623 19.704C8.08452 20.423 8.56154 20.9274 9.17038 21.091C9.31072 21.1287 9.45403 21.1473 9.59836 21.1473C10.0928 21.1473 10.5991 20.9295 11.0363 20.5189L12.9178 18.7512L17.5087 21.911C17.9222 22.2166 18.372 22.3779 18.8107 22.3779C19.7011 22.3778 20.4112 21.726 20.6199 20.7174L23.943 4.64505C24.0796 3.98451 23.9694 3.39307 23.6327 2.97961ZM7.0133 14.2615L12.8772 11.1169L8.79044 14.8656C8.64493 14.9991 8.56388 15.1871 8.56365 15.3831C8.56337 15.3903 8.56248 15.3973 8.56243 15.4045L8.54832 17.7752L7.0133 14.2615ZM10.0735 19.4939C10.0301 19.5346 9.98664 19.5704 9.9437 19.6016L9.96091 16.7158L11.7324 17.9352L10.0735 19.4939ZM22.5658 4.36028L19.2427 20.4325C19.2092 20.5946 19.1 20.9716 18.8106 20.9716C18.6755 20.9716 18.5078 20.902 18.3386 20.7756C18.3314 20.7702 18.324 20.7649 18.3165 20.7598L13.2553 17.2762C13.2546 17.2757 13.2539 17.2752 13.2532 17.2748L10.3917 15.3051L17.9508 8.37133C18.212 8.13174 18.2541 7.73521 18.0489 7.44617C17.8437 7.15713 17.4555 7.066 17.1432 7.23349L6.05476 13.1798L1.74552 11.6007C1.74238 11.5995 1.73924 11.5984 1.73605 11.5972L22.0341 3.9066C22.2052 3.84177 22.3246 3.82818 22.3946 3.82818C22.4293 3.82818 22.5132 3.83202 22.5422 3.86765C22.5794 3.91326 22.6262 4.06837 22.5658 4.36028Z" fill="black"/>
</g>
<defs>
<clipPath id="clip0_28_1894">
<rect width="24" height="24" fill="white" transform="translate(0 0.399902)"/>
</clipPath>
</defs>
</svg>
