<svg width="24" height="25" viewBox="0 0 24 25" fill="red" xmlns="http://www.w3.org/2000/svg">
<path d="M19.5 13.172L12 20.6L4.5 13.172C4.0053 12.6906 3.61564 12.112 3.35554 11.4727C3.09545 10.8333 2.97056 10.147 2.98873 9.45696C3.00691 8.76695 3.16776 8.08817 3.46115 7.46337C3.75455 6.83857 4.17413 6.28128 4.69348 5.82661C5.21283 5.37194 5.8207 5.02972 6.47881 4.82151C7.13691 4.6133 7.831 4.54361 8.51736 4.61683C9.20373 4.69005 9.8675 4.90459 10.4669 5.24694C11.0662 5.58929 11.5882 6.05203 12 6.60603C12.4135 6.05605 12.9361 5.59735 13.5351 5.25863C14.1341 4.91992 14.7965 4.70848 15.4809 4.63755C16.1654 4.56662 16.8571 4.63773 17.5128 4.84642C18.1685 5.05512 18.774 5.3969 19.2915 5.85039C19.8091 6.30388 20.2274 6.85931 20.5204 7.48192C20.8134 8.10453 20.9747 8.78091 20.9943 9.46874C21.0139 10.1566 20.8913 10.841 20.6341 11.4793C20.377 12.1175 19.9909 12.6959 19.5 13.178" stroke="#F20505" stroke-linecap="round" stroke-linejoin="round"/>
</svg>
